999
$EPSG=2154
999
Projection: Lambert-93 (RGF93/IGN69) – France metropolitaine
999
Zone: ~420 x 330 m – Secteur Saint-Denis, Ile-de-France
  0
SECTION
  2
HEADER
  9
$ACADVER
  1
AC1015
  9
$DWGCODEPAGE
  3
ANSI_1252
  9
$INSBASE
 10
0.0
 20
0.0
 30
0.0
  9
$EXTMIN
 10
654985.0
 20
6861985.0
 30
0.0
  9
$EXTMAX
 10
655435.0
 20
6862335.0
 30
0.0
  9
$LIMMIN
 10
654985.0
 20
6861985.0
  9
$LIMMAX
 10
655435.0
 20
6862335.0
  9
$INSUNITS
 70
6
  9
$MEASUREMENT
 70
1
  9
$PROJECTNAME
  1
Plan_Masse_Saint_Denis_EPSG2154
  9
$LASTSAVEDBY
  1
SurveyCalculatorSuite-v1
  0
ENDSEC
  0
SECTION
  2
TABLES
  0
TABLE
  2
LTYPE
  5
1
100
AcDbSymbolTable
 70
1
  0
LTYPE
  5
2
100
AcDbSymbolTableRecord
100
AcDbLinetypeTableRecord
  2
CONTINUOUS
 70
0
  3
Solid line
 72
65
 73
0
 40
0.0
  0
ENDTAB
  0
TABLE
  2
LAYER
  5
3
100
AcDbSymbolTable
 70
10
  0
LAYER
  5
4
100
AcDbSymbolTableRecord
100
AcDbLayerTableRecord
  2
0
 70
0
 62
7
  6
CONTINUOUS
  0
LAYER
  5
5
100
AcDbSymbolTableRecord
100
AcDbLayerTableRecord
  2
LIMITE_ZONE
 70
0
 62
6
  6
CONTINUOUS
  0
LAYER
  5
6
100
AcDbSymbolTableRecord
100
AcDbLayerTableRecord
  2
ROUTES
 70
0
 62
1
  6
CONTINUOUS
  0
LAYER
  5
7
100
AcDbSymbolTableRecord
100
AcDbLayerTableRecord
  2
TROTTOIRS
 70
0
 62
8
  6
CONTINUOUS
  0
LAYER
  5
8
100
AcDbSymbolTableRecord
100
AcDbLayerTableRecord
  2
BATIMENTS
 70
0
 62
2
  6
CONTINUOUS
  0
LAYER
  5
9
100
AcDbSymbolTableRecord
100
AcDbLayerTableRecord
  2
PARCELLES
 70
0
 62
3
  6
CONTINUOUS
  0
LAYER
  5
A
100
AcDbSymbolTableRecord
100
AcDbLayerTableRecord
  2
ESPACES_VERTS
 70
0
 62
62
  6
CONTINUOUS
  0
LAYER
  5
B
100
AcDbSymbolTableRecord
100
AcDbLayerTableRecord
  2
RESEAUX
 70
0
 62
4
  6
CONTINUOUS
  0
LAYER
  5
C
100
AcDbSymbolTableRecord
100
AcDbLayerTableRecord
  2
POINTS_TOPO
 70
0
 62
7
  6
CONTINUOUS
  0
LAYER
  5
D
100
AcDbSymbolTableRecord
100
AcDbLayerTableRecord
  2
ANNOTATIONS
 70
0
 62
5
  6
CONTINUOUS
  0
ENDTAB
  0
ENDSEC
  0
SECTION
  2
ENTITIES
  0
LWPOLYLINE
  5
50
100
AcDbEntity
  8
LIMITE_ZONE
100
AcDbPolyline
 90
4
 70
1
 43
0.0
 10
654995.000
 20
6861995.000
 10
655425.000
 20
6861995.000
 10
655425.000
 20
6862325.000
 10
654995.000
 20
6862325.000
  0
LWPOLYLINE
  5
51
100
AcDbEntity
  8
ROUTES
100
AcDbPolyline
 90
7
 70
0
 43
0.0
 10
654990.000
 20
6862148.000
 10
655050.000
 20
6862150.000
 10
655100.000
 20
6862150.000
 10
655200.000
 20
6862150.000
 10
655310.000
 20
6862148.000
 10
655380.000
 20
6862146.000
 10
655430.000
 20
6862144.000
  0
LWPOLYLINE
  5
52
100
AcDbEntity
  8
ROUTES
100
AcDbPolyline
 90
7
 70
0
 43
0.0
 10
655198.000
 20
6861990.000
 10
655200.000
 20
6862060.000
 10
655200.000
 20
6862080.000
 10
655200.000
 20
6862150.000
 10
655202.000
 20
6862240.000
 10
655201.000
 20
6862290.000
 10
655200.000
 20
6862330.000
  0
LWPOLYLINE
  5
53
100
AcDbEntity
  8
ROUTES
100
AcDbPolyline
 90
5
 70
0
 43
0.0
 10
654990.000
 20
6862268.000
 10
655055.000
 20
6862225.000
 10
655120.000
 20
6862192.000
 10
655165.000
 20
6862170.000
 10
655200.000
 20
6862150.000
  0
LWPOLYLINE
  5
54
100
AcDbEntity
  8
ROUTES
100
AcDbPolyline
 90
4
 70
0
 43
0.0
 10
655200.000
 20
6862068.000
 10
655280.000
 20
6862065.000
 10
655355.000
 20
6862060.000
 10
655430.000
 20
6862055.000
  0
LWPOLYLINE
  5
55
100
AcDbEntity
  8
ROUTES
100
AcDbPolyline
 90
4
 70
0
 43
0.0
 10
655305.000
 20
6862240.000
 10
655352.000
 20
6862252.000
 10
655410.000
 20
6862250.000
 10
655422.000
 20
6862250.000
  0
LWPOLYLINE
  5
56
100
AcDbEntity
  8
TROTTOIRS
100
AcDbPolyline
 90
5
 70
0
 43
0.0
 10
654990.000
 20
6862160.000
 10
655100.000
 20
6862162.000
 10
655200.000
 20
6862162.000
 10
655310.000
 20
6862160.000
 10
655430.000
 20
6862156.000
  0
LWPOLYLINE
  5
57
100
AcDbEntity
  8
TROTTOIRS
100
AcDbPolyline
 90
5
 70
0
 43
0.0
 10
654990.000
 20
6862136.000
 10
655100.000
 20
6862138.000
 10
655200.000
 20
6862138.000
 10
655310.000
 20
6862136.000
 10
655430.000
 20
6862132.000
  0
LWPOLYLINE
  5
58
100
AcDbEntity
  8
TROTTOIRS
100
AcDbPolyline
 90
5
 70
0
 43
0.0
 10
655186.000
 20
6861990.000
 10
655188.000
 20
6862060.000
 10
655188.000
 20
6862150.000
 10
655190.000
 20
6862250.000
 10
655190.000
 20
6862330.000
  0
LWPOLYLINE
  5
59
100
AcDbEntity
  8
TROTTOIRS
100
AcDbPolyline
 90
5
 70
0
 43
0.0
 10
655210.000
 20
6861990.000
 10
655212.000
 20
6862060.000
 10
655212.000
 20
6862150.000
 10
655214.000
 20
6862250.000
 10
655212.000
 20
6862330.000
  0
LWPOLYLINE
  5
5A
100
AcDbEntity
  8
BATIMENTS
100
AcDbPolyline
 90
4
 70
1
 43
0.0
 10
655010.000
 20
6862165.000
 10
655090.000
 20
6862165.000
 10
655090.000
 20
6862225.000
 10
655010.000
 20
6862225.000
  0
LWPOLYLINE
  5
5B
100
AcDbEntity
  8
BATIMENTS
100
AcDbPolyline
 90
4
 70
1
 43
0.0
 10
655105.000
 20
6862175.000
 10
655165.000
 20
6862175.000
 10
655165.000
 20
6862225.000
 10
655105.000
 20
6862225.000
  0
LWPOLYLINE
  5
5C
100
AcDbEntity
  8
BATIMENTS
100
AcDbPolyline
 90
4
 70
1
 43
0.0
 10
655015.000
 20
6862240.000
 10
655048.000
 20
6862240.000
 10
655048.000
 20
6862263.000
 10
655015.000
 20
6862263.000
  0
LWPOLYLINE
  5
5D
100
AcDbEntity
  8
BATIMENTS
100
AcDbPolyline
 90
4
 70
1
 43
0.0
 10
655063.000
 20
6862252.000
 10
655098.000
 20
6862252.000
 10
655098.000
 20
6862276.000
 10
655063.000
 20
6862276.000
  0
LWPOLYLINE
  5
5E
100
AcDbEntity
  8
BATIMENTS
100
AcDbPolyline
 90
4
 70
1
 43
0.0
 10
655113.000
 20
6862242.000
 10
655152.000
 20
6862242.000
 10
655152.000
 20
6862268.000
 10
655113.000
 20
6862268.000
  0
LWPOLYLINE
  5
5F
100
AcDbEntity
  8
BATIMENTS
100
AcDbPolyline
 90
4
 70
1
 43
0.0
 10
655015.000
 20
6862282.000
 10
655090.000
 20
6862282.000
 10
655090.000
 20
6862317.000
 10
655015.000
 20
6862317.000
  0
LWPOLYLINE
  5
60
100
AcDbEntity
  8
BATIMENTS
100
AcDbPolyline
 90
4
 70
1
 43
0.0
 10
655010.000
 20
6862010.000
 10
655120.000
 20
6862010.000
 10
655120.000
 20
6862075.000
 10
655010.000
 20
6862075.000
  0
LWPOLYLINE
  5
61
100
AcDbEntity
  8
BATIMENTS
100
AcDbPolyline
 90
4
 70
1
 43
0.0
 10
655010.000
 20
6862090.000
 10
655060.000
 20
6862090.000
 10
655060.000
 20
6862128.000
 10
655010.000
 20
6862128.000
  0
LWPOLYLINE
  5
62
100
AcDbEntity
  8
BATIMENTS
100
AcDbPolyline
 90
4
 70
1
 43
0.0
 10
655072.000
 20
6862090.000
 10
655130.000
 20
6862090.000
 10
655130.000
 20
6862128.000
 10
655072.000
 20
6862128.000
  0
LWPOLYLINE
  5
63
100
AcDbEntity
  8
BATIMENTS
100
AcDbPolyline
 90
4
 70
1
 43
0.0
 10
655135.000
 20
6862010.000
 10
655190.000
 20
6862010.000
 10
655190.000
 20
6862035.000
 10
655135.000
 20
6862035.000
  0
LWPOLYLINE
  5
64
100
AcDbEntity
  8
BATIMENTS
100
AcDbPolyline
 90
6
 70
1
 43
0.0
 10
655215.000
 20
6862165.000
 10
655292.000
 20
6862165.000
 10
655292.000
 20
6862205.000
 10
655262.000
 20
6862205.000
 10
655262.000
 20
6862232.000
 10
655215.000
 20
6862232.000
  0
LWPOLYLINE
  5
65
100
AcDbEntity
  8
BATIMENTS
100
AcDbPolyline
 90
4
 70
1
 43
0.0
 10
655308.000
 20
6862180.000
 10
655385.000
 20
6862180.000
 10
655385.000
 20
6862230.000
 10
655308.000
 20
6862230.000
  0
LWPOLYLINE
  5
66
100
AcDbEntity
  8
BATIMENTS
100
AcDbPolyline
 90
4
 70
1
 43
0.0
 10
655215.000
 20
6862257.000
 10
655258.000
 20
6862257.000
 10
655258.000
 20
6862284.000
 10
655215.000
 20
6862284.000
  0
LWPOLYLINE
  5
67
100
AcDbEntity
  8
BATIMENTS
100
AcDbPolyline
 90
8
 70
1
 43
0.0
 10
655310.000
 20
6862248.000
 10
655385.000
 20
6862248.000
 10
655385.000
 20
6862265.000
 10
655358.000
 20
6862265.000
 10
655358.000
 20
6862300.000
 10
655336.000
 20
6862300.000
 10
655336.000
 20
6862265.000
 10
655310.000
 20
6862265.000
  0
LWPOLYLINE
  5
68
100
AcDbEntity
  8
BATIMENTS
100
AcDbPolyline
 90
6
 70
1
 43
0.0
 10
655215.000
 20
6862008.000
 10
655390.000
 20
6862008.000
 10
655390.000
 20
6862058.000
 10
655312.000
 20
6862058.000
 10
655312.000
 20
6862098.000
 10
655215.000
 20
6862098.000
  0
LWPOLYLINE
  5
69
100
AcDbEntity
  8
BATIMENTS
100
AcDbPolyline
 90
4
 70
1
 43
0.0
 10
655330.000
 20
6862070.000
 10
655375.000
 20
6862070.000
 10
655375.000
 20
6862105.000
 10
655330.000
 20
6862105.000
  0
LWPOLYLINE
  5
6A
100
AcDbEntity
  8
BATIMENTS
100
AcDbPolyline
 90
4
 70
1
 43
0.0
 10
655215.000
 20
6862115.000
 10
655258.000
 20
6862115.000
 10
655258.000
 20
6862138.000
 10
655215.000
 20
6862138.000
  0
LWPOLYLINE
  5
6B
100
AcDbEntity
  8
PARCELLES
100
AcDbPolyline
 90
4
 70
1
 43
0.0
 10
655002.000
 20
6862155.000
 10
655193.000
 20
6862155.000
 10
655193.000
 20
6862323.000
 10
655002.000
 20
6862323.000
  0
LWPOLYLINE
  5
6C
100
AcDbEntity
  8
PARCELLES
100
AcDbPolyline
 90
4
 70
1
 43
0.0
 10
655002.000
 20
6861998.000
 10
655193.000
 20
6861998.000
 10
655193.000
 20
6862145.000
 10
655002.000
 20
6862145.000
  0
LWPOLYLINE
  5
6D
100
AcDbEntity
  8
PARCELLES
100
AcDbPolyline
 90
4
 70
1
 43
0.0
 10
655205.000
 20
6862155.000
 10
655305.000
 20
6862155.000
 10
655305.000
 20
6862323.000
 10
655205.000
 20
6862323.000
  0
LWPOLYLINE
  5
6E
100
AcDbEntity
  8
PARCELLES
100
AcDbPolyline
 90
4
 70
1
 43
0.0
 10
655305.000
 20
6862155.000
 10
655423.000
 20
6862155.000
 10
655423.000
 20
6862323.000
 10
655305.000
 20
6862323.000
  0
LWPOLYLINE
  5
6F
100
AcDbEntity
  8
PARCELLES
100
AcDbPolyline
 90
4
 70
1
 43
0.0
 10
655205.000
 20
6861998.000
 10
655423.000
 20
6861998.000
 10
655423.000
 20
6862145.000
 10
655205.000
 20
6862145.000
  0
LWPOLYLINE
  5
70
100
AcDbEntity
  8
ESPACES_VERTS
100
AcDbPolyline
 90
6
 70
1
 43
0.0
 10
655222.000
 20
6862248.000
 10
655298.000
 20
6862242.000
 10
655375.000
 20
6862260.000
 10
655418.000
 20
6862295.000
 10
655402.000
 20
6862320.000
 10
655222.000
 20
6862318.000
  0
LWPOLYLINE
  5
71
100
AcDbEntity
  8
ESPACES_VERTS
100
AcDbPolyline
 90
6
 70
1
 43
0.0
 10
655135.000
 20
6862082.000
 10
655183.000
 20
6862082.000
 10
655188.000
 20
6862106.000
 10
655183.000
 20
6862133.000
 10
655135.000
 20
6862133.000
 10
655130.000
 20
6862106.000
  0
LWPOLYLINE
  5
72
100
AcDbEntity
  8
ESPACES_VERTS
100
AcDbPolyline
 90
4
 70
1
 43
0.0
 10
655100.000
 20
6862245.000
 10
655182.000
 20
6862245.000
 10
655182.000
 20
6862320.000
 10
655100.000
 20
6862320.000
  0
LWPOLYLINE
  5
73
100
AcDbEntity
  8
ESPACES_VERTS
100
AcDbPolyline
 90
4
 70
1
 43
0.0
 10
654998.000
 20
6861998.000
 10
655425.000
 20
6861998.000
 10
655425.000
 20
6862005.000
 10
654998.000
 20
6862005.000
  0
LWPOLYLINE
  5
74
100
AcDbEntity
  8
RESEAUX
100
AcDbPolyline
 90
5
 70
0
 43
0.0
 10
654990.000
 20
6862153.000
 10
655100.000
 20
6862153.000
 10
655200.000
 20
6862153.000
 10
655310.000
 20
6862153.000
 10
655430.000
 20
6862153.000
  0
LWPOLYLINE
  5
75
100
AcDbEntity
  8
RESEAUX
100
AcDbPolyline
 90
5
 70
0
 43
0.0
 10
655195.000
 20
6861990.000
 10
655195.000
 20
6862060.000
 10
655195.000
 20
6862150.000
 10
655195.000
 20
6862260.000
 10
655195.000
 20
6862330.000
  0
LWPOLYLINE
  5
76
100
AcDbEntity
  8
RESEAUX
100
AcDbPolyline
 90
6
 70
0
 43
0.0
 10
654990.000
 20
6862274.000
 10
655058.000
 20
6862228.000
 10
655142.000
 20
6862186.000
 10
655200.000
 20
6862150.000
 10
655200.000
 20
6862230.000
 10
655200.000
 20
6862320.000
  0
LWPOLYLINE
  5
77
100
AcDbEntity
  8
RESEAUX
100
AcDbPolyline
 90
5
 70
0
 43
0.0
 10
654990.000
 20
6862143.000
 10
655200.000
 20
6862143.000
 10
655200.000
 20
6862060.000
 10
655310.000
 20
6862060.000
 10
655430.000
 20
6862048.000
  0
POINT
  5
78
100
AcDbEntity
  8
POINTS_TOPO
100
AcDbPoint
 10
654995.000
 20
6861995.000
 30
0.000
  0
TEXT
  5
79
100
AcDbEntity
  8
ANNOTATIONS
100
AcDbText
 10
654997.000
 20
6861997.000
 30
0.000
 40
4
  1
PT001
100
AcDbText
  0
TEXT
  5
7A
100
AcDbEntity
  8
ANNOTATIONS
100
AcDbText
 10
654997.000
 20
6862003.000
 30
0.000
 40
2
  1
Borne zone SW – alt.28.5m
100
AcDbText
  0
POINT
  5
7B
100
AcDbEntity
  8
POINTS_TOPO
100
AcDbPoint
 10
655425.000
 20
6861995.000
 30
0.000
  0
TEXT
  5
7C
100
AcDbEntity
  8
ANNOTATIONS
100
AcDbText
 10
655427.000
 20
6861997.000
 30
0.000
 40
4
  1
PT002
100
AcDbText
  0
TEXT
  5
7D
100
AcDbEntity
  8
ANNOTATIONS
100
AcDbText
 10
655427.000
 20
6862003.000
 30
0.000
 40
2
  1
Borne zone SE – alt.27.8m
100
AcDbText
  0
POINT
  5
7E
100
AcDbEntity
  8
POINTS_TOPO
100
AcDbPoint
 10
655425.000
 20
6862325.000
 30
0.000
  0
TEXT
  5
7F
100
AcDbEntity
  8
ANNOTATIONS
100
AcDbText
 10
655427.000
 20
6862327.000
 30
0.000
 40
4
  1
PT003
100
AcDbText
  0
TEXT
  5
80
100
AcDbEntity
  8
ANNOTATIONS
100
AcDbText
 10
655427.000
 20
6862333.000
 30
0.000
 40
2
  1
Borne zone NE – alt.30.1m
100
AcDbText
  0
POINT
  5
81
100
AcDbEntity
  8
POINTS_TOPO
100
AcDbPoint
 10
654995.000
 20
6862325.000
 30
0.000
  0
TEXT
  5
82
100
AcDbEntity
  8
ANNOTATIONS
100
AcDbText
 10
654997.000
 20
6862327.000
 30
0.000
 40
4
  1
PT004
100
AcDbText
  0
TEXT
  5
83
100
AcDbEntity
  8
ANNOTATIONS
100
AcDbText
 10
654997.000
 20
6862333.000
 30
0.000
 40
2
  1
Borne zone NW – alt.29.6m
100
AcDbText
  0
POINT
  5
84
100
AcDbEntity
  8
POINTS_TOPO
100
AcDbPoint
 10
655200.000
 20
6862150.000
 30
0.000
  0
TEXT
  5
85
100
AcDbEntity
  8
ANNOTATIONS
100
AcDbText
 10
655202.000
 20
6862152.000
 30
0.000
 40
4
  1
PT005
100
AcDbText
  0
TEXT
  5
86
100
AcDbEntity
  8
ANNOTATIONS
100
AcDbText
 10
655202.000
 20
6862158.000
 30
0.000
 40
2
  1
Carrefour D7/Rep – alt.28.9m
100
AcDbText
  0
POINT
  5
87
100
AcDbEntity
  8
POINTS_TOPO
100
AcDbPoint
 10
655200.000
 20
6862068.000
 30
0.000
  0
TEXT
  5
88
100
AcDbEntity
  8
ANNOTATIONS
100
AcDbText
 10
655202.000
 20
6862070.000
 30
0.000
 40
4
  1
PT006
100
AcDbText
  0
TEXT
  5
89
100
AcDbEntity
  8
ANNOTATIONS
100
AcDbText
 10
655202.000
 20
6862076.000
 30
0.000
 40
2
  1
Jonction commerciale – alt.28.5m
100
AcDbText
  0
POINT
  5
8A
100
AcDbEntity
  8
POINTS_TOPO
100
AcDbPoint
 10
655010.000
 20
6862165.000
 30
0.000
  0
TEXT
  5
8B
100
AcDbEntity
  8
ANNOTATIONS
100
AcDbText
 10
655012.000
 20
6862167.000
 30
0.000
 40
4
  1
PT007
100
AcDbText
  0
TEXT
  5
8C
100
AcDbEntity
  8
ANNOTATIONS
100
AcDbText
 10
655012.000
 20
6862173.000
 30
0.000
 40
2
  1
Angle Immeuble A – alt.28.7m
100
AcDbText
  0
POINT
  5
8D
100
AcDbEntity
  8
POINTS_TOPO
100
AcDbPoint
 10
655215.000
 20
6862008.000
 30
0.000
  0
TEXT
  5
8E
100
AcDbEntity
  8
ANNOTATIONS
100
AcDbText
 10
655217.000
 20
6862010.000
 30
0.000
 40
4
  1
PT008
100
AcDbText
  0
TEXT
  5
8F
100
AcDbEntity
  8
ANNOTATIONS
100
AcDbText
 10
655217.000
 20
6862016.000
 30
0.000
 40
2
  1
Angle Batiment Ind. – alt.27.9m
100
AcDbText
  0
POINT
  5
90
100
AcDbEntity
  8
POINTS_TOPO
100
AcDbPoint
 10
655010.000
 20
6862010.000
 30
0.000
  0
TEXT
  5
91
100
AcDbEntity
  8
ANNOTATIONS
100
AcDbText
 10
655012.000
 20
6862012.000
 30
0.000
 40
4
  1
PT009
100
AcDbText
  0
TEXT
  5
92
100
AcDbEntity
  8
ANNOTATIONS
100
AcDbText
 10
655012.000
 20
6862018.000
 30
0.000
 40
2
  1
Angle Entrepot SW – alt.28.0m
100
AcDbText
  0
POINT
  5
93
100
AcDbEntity
  8
POINTS_TOPO
100
AcDbPoint
 10
655385.000
 20
6862180.000
 30
0.000
  0
TEXT
  5
94
100
AcDbEntity
  8
ANNOTATIONS
100
AcDbText
 10
655387.000
 20
6862182.000
 30
0.000
 40
4
  1
PT010
100
AcDbText
  0
TEXT
  5
95
100
AcDbEntity
  8
ANNOTATIONS
100
AcDbText
 10
655387.000
 20
6862188.000
 30
0.000
 40
2
  1
Angle Pavillon 2 – alt.29.5m
100
AcDbText
  0
POINT
  5
96
100
AcDbEntity
  8
POINTS_TOPO
100
AcDbPoint
 10
655090.000
 20
6862225.000
 30
0.000
  0
TEXT
  5
97
100
AcDbEntity
  8
ANNOTATIONS
100
AcDbText
 10
655092.000
 20
6862227.000
 30
0.000
 40
4
  1
PT011
100
AcDbText
  0
TEXT
  5
98
100
AcDbEntity
  8
ANNOTATIONS
100
AcDbText
 10
655092.000
 20
6862233.000
 30
0.000
 40
2
  1
Topo Imm B – alt.29.0m
100
AcDbText
  0
POINT
  5
99
100
AcDbEntity
  8
POINTS_TOPO
100
AcDbPoint
 10
655308.000
 20
6862230.000
 30
0.000
  0
TEXT
  5
9A
100
AcDbEntity
  8
ANNOTATIONS
100
AcDbText
 10
655310.000
 20
6862232.000
 30
0.000
 40
4
  1
PT012
100
AcDbText
  0
TEXT
  5
9B
100
AcDbEntity
  8
ANNOTATIONS
100
AcDbText
 10
655310.000
 20
6862238.000
 30
0.000
 40
2
  1
Topo Pavillon 1 – alt.29.8m
100
AcDbText
  0
POINT
  5
9C
100
AcDbEntity
  8
POINTS_TOPO
100
AcDbPoint
 10
655050.000
 20
6862042.000
 30
0.000
  0
TEXT
  5
9D
100
AcDbEntity
  8
ANNOTATIONS
100
AcDbText
 10
655052.000
 20
6862044.000
 30
0.000
 40
4
  1
PT013
100
AcDbText
  0
TEXT
  5
9E
100
AcDbEntity
  8
ANNOTATIONS
100
AcDbText
 10
655052.000
 20
6862050.000
 30
0.000
 40
2
  1
Centre Entrepot – alt.28.2m
100
AcDbText
  0
POINT
  5
9F
100
AcDbEntity
  8
POINTS_TOPO
100
AcDbPoint
 10
655312.000
 20
6862058.000
 30
0.000
  0
TEXT
  5
A0
100
AcDbEntity
  8
ANNOTATIONS
100
AcDbText
 10
655314.000
 20
6862060.000
 30
0.000
 40
4
  1
PT014
100
AcDbText
  0
TEXT
  5
A1
100
AcDbEntity
  8
ANNOTATIONS
100
AcDbText
 10
655314.000
 20
6862066.000
 30
0.000
 40
2
  1
Equerre Ind. – alt.28.1m
100
AcDbText
  0
POINT
  5
A2
100
AcDbEntity
  8
POINTS_TOPO
100
AcDbPoint
 10
655200.000
 20
6862268.000
 30
0.000
  0
TEXT
  5
A3
100
AcDbEntity
  8
ANNOTATIONS
100
AcDbText
 10
655202.000
 20
6862270.000
 30
0.000
 40
4
  1
PT015
100
AcDbText
  0
TEXT
  5
A4
100
AcDbEntity
  8
ANNOTATIONS
100
AcDbText
 10
655202.000
 20
6862276.000
 30
0.000
 40
2
  1
Acc. Parc – alt.30.3m
100
AcDbText
  0
ENDSEC
  0
EOF
